<svg xmlns="http://www.w3.org/2000/svg" viewBox="0 0 1920 1080" fill="none">
  <defs>
    <linearGradient id="bg" x1="160" y1="80" x2="1760" y2="1020" gradientUnits="userSpaceOnUse">
      <stop stop-color="#181e2f"/>
      <stop offset=".45" stop-color="#121828"/>
      <stop offset="1" stop-color="#090c14"/>
    </linearGradient>
    <linearGradient id="accent" x1="300" y1="160" x2="1440" y2="860" gradientUnits="userSpaceOnUse">
      <stop stop-color="#e0d0ff"/>
      <stop offset=".4" stop-color="#a480ff"/>
      <stop offset="1" stop-color="#58d5c8"/>
    </linearGradient>
  </defs>
  <rect width="1920" height="1080" fill="url(#bg)"/>
  <circle cx="1700" cy="140" r="180" fill="#7a55ff" fill-opacity=".14"/>
  <circle cx="260" cy="980" r="210" fill="#46d5c8" fill-opacity=".1"/>
  <rect x="46" y="46" width="1828" height="988" rx="30" fill="#0f1320" stroke="#252c40" stroke-width="4"/>
  <rect x="88" y="88" width="1744" height="92" rx="24" fill="#171d2d" stroke="#2d3550"/>
  <rect x="120" y="108" width="58" height="58" rx="18" fill="url(#accent)"/>
  <text x="204" y="142" fill="#efe6ff" font-size="42" font-family="Georgia, serif">Verloren RPG Sheets</text>
  <text x="1460" y="144" fill="#8f99b5" font-size="24" font-family="Arial, sans-serif">PWA companion offline</text>
  <rect x="88" y="214" width="432" height="766" rx="28" fill="#151c2a" stroke="#2b3350"/>
  <rect x="562" y="214" width="620" height="364" rx="28" fill="#151c2a" stroke="#2b3350"/>
  <rect x="1218" y="214" width="614" height="364" rx="28" fill="#151c2a" stroke="#2b3350"/>
  <rect x="562" y="616" width="1270" height="364" rx="28" fill="#151c2a" stroke="#2b3350"/>
  <rect x="126" y="252" width="356" height="220" rx="24" fill="url(#accent)" fill-opacity=".94"/>
  <text x="126" y="524" fill="#efe6ff" font-size="46" font-family="Georgia, serif">Kael de Unheaven</text>
  <text x="126" y="566" fill="#94a0bf" font-size="24" font-family="Arial, sans-serif">Humano Sombrio • Nível 6 • Aika</text>
  <text x="126" y="642" fill="#eadfff" font-size="28" font-family="Arial, sans-serif">Resumo</text>
  <g fill="#9aa4bf" font-family="Arial, sans-serif" font-size="24">
    <text x="126" y="706">FOR -∞</text>
    <text x="126" y="756">MAG +5</text>
    <text x="126" y="806">DEF +8</text>
    <text x="126" y="856">HP 31</text>
    <text x="126" y="906">MP 18</text>
  </g>
  <text x="604" y="272" fill="#eadfff" font-size="30" font-family="Arial, sans-serif">Ficha</text>
  <text x="1260" y="272" fill="#eadfff" font-size="30" font-family="Arial, sans-serif">Sistema</text>
  <rect x="604" y="304" width="236" height="48" rx="24" fill="#3f5e57"/>
  <rect x="858" y="304" width="198" height="48" rx="24" fill="#514172"/>
  <rect x="604" y="384" width="518" height="18" rx="9" fill="#5a6581"/>
  <rect x="604" y="420" width="442" height="18" rx="9" fill="#3d465b"/>
  <rect x="1260" y="304" width="516" height="18" rx="9" fill="#5a6581"/>
  <rect x="1260" y="340" width="468" height="18" rx="9" fill="#3d465b"/>
  <rect x="1260" y="408" width="252" height="114" rx="20" fill="#1e2740"/>
  <rect x="1524" y="408" width="252" height="114" rx="20" fill="#211d3a"/>
  <text x="608" y="666" fill="#eadfff" font-size="30" font-family="Arial, sans-serif">Biblioteca, progressão, bestiário, grimório e drops</text>
  <rect x="604" y="712" width="364" height="216" rx="24" fill="#1b2335"/>
  <rect x="992" y="712" width="364" height="216" rx="24" fill="#1e2740"/>
  <rect x="1380" y="712" width="364" height="216" rx="24" fill="#231e40"/>
  <g fill="#d7d0eb" font-family="Arial, sans-serif" font-size="26">
    <text x="636" y="778">Fichas e presets</text>
    <text x="636" y="824">Busca refinada</text>
    <text x="1024" y="778">Mundo e criaturas</text>
    <text x="1024" y="824">Consulta rápida</text>
    <text x="1412" y="778">Instalação PWA</text>
    <text x="1412" y="824">Offline e cache</text>
  </g>
</svg>
